<svg id="Layer_1" data-name="Layer 1" xmlns="http://www.w3.org/2000/svg" viewBox="0 0 2225.29 203.12"><defs><style>.cls-1{fill:none;stroke:#707070;stroke-dasharray:30;}.cls-2{opacity:0.07;}</style></defs><title>line</title><g id="Group_33" data-name="Group 33"><path class="cls-1" d="M.42,338.19c2.13,5.28,7.53,9.32,10.22,14.72a192.51,192.51,0,0,0,31,35.07c14.84,12.14,31,22.93,49.91,28.33,5.39,1.35,12.14,2.69,17.53,4C155,427.1,198.14,415,240,397.42,306,371.79,368.09,338.07,434.19,311.1c64.74-25.63,132.18-40.47,202.33-35.07,60.69,5.39,118.7,18.88,178,36.41,105.22,31,203.68,62.05,310.24,90.38,14.84,4,29.68,6.74,44.52,9.44,16.18,2.7,29.67,5.4,45.86,8.09,90.37,14.84,176.7,13.49,264.37-10.79,47.21-12.14,90.38-31,136.24-47.21,4-1.35,9.44-1.35,13.49-2.7a10.14,10.14,0,0,1,5.39-2.69c33.72-9.45,66.1-13.49,101.17-17.54h13.48c90.38-9.44,178-4.05,267.08,4.05,4,0,8.09,2.7,12.14,2.7,62.05,5.39,121.4,17.53,183.44,35.07,4.05,0,9.45,4,13,6.55" transform="translate(0.04 -274.42)"/><g id="flight" class="cls-2"><g id="Group_12" data-name="Group 12"><g id="Group_11" data-name="Group 11"><path id="Path_2229" data-name="Path 2229" d="M1071.77,313.35a23.73,23.73,0,0,0-13.78-8.22l-14.51-2.82a1.46,1.46,0,0,0-1.72,1.14v0a1.48,1.48,0,0,0,.14.95l27.41,53.95,47.41,9.32Z" transform="translate(0.04 -274.42)"/></g></g><g id="Group_14" data-name="Group 14"><g id="Group_13" data-name="Group 13"><path id="Path_2230" data-name="Path 2230" d="M1212.05,398.2h0L978.94,352.61a21.75,21.75,0,0,1-16.46-14.12l-15.65-28.7a8.25,8.25,0,0,0-15.26,5.91L944.38,368a1.5,1.5,0,0,1,0,.3,10.31,10.31,0,0,0,6.74,8l108.05,33.34A5.89,5.89,0,0,1,1061,420L992.88,470.4a1.45,1.45,0,0,0-.19,2.05l0,0a1.46,1.46,0,0,0,.84.5l21.31,4.14a23.59,23.59,0,0,0,16.18-2.69l.17-.1L1117,428.68a5.84,5.84,0,0,1,4-.56l81.84,17.44c11.76,2.27,23.39-6.55,25.91-19.54C1231.36,412.81,1224,400.54,1212.05,398.2Z" transform="translate(0.04 -274.42)"/></g></g></g></g></svg>